{
  "accessors": [
    {
      "bufferView": 2,
      "componentType": 5126,
      "count": 2828,
      "max": [
        0.13882382214069366,
        0.3796922266483307,
        0.11684779822826385
      ],
      "min": [
        -0.13899986445903778,
        0.0018998599844053388,
        -2.996995429604965e-10
      ],
      "type": "VEC3"
    },
    {
      "bufferView": 2,
      "byteOffset": 33936,
      "componentType": 5126,
      "count": 2828,
      "max": [
        0.9967994093894958,
        0.9994509220123291,
        0.9999580383300781
      ],
      "min": [
        -0.9997182488441467,
        -0.9999503493309021,
        -0.7888624668121338
      ],
      "type": "VEC3"
    },
    {
      "bufferView": 3,
      "componentType": 5126,
      "count": 2828,
      "max": [
        0.9998387098312378,
        0.8582134246826172,
        0.9997256398200989,
        -1.0
      ],
      "min": [
        -0.5445684194564819,
        -0.7574517130851746,
        -0.9980639219284058,
        -1.0
      ],
      "type": "VEC4"
    },
    {
      "bufferView": 1,
      "componentType": 5126,
      "count": 2828,
      "max": [
        0.8142879605293274,
        0.9965879321098328
      ],
      "min": [
        0.005784343928098679,
        0.008080816827714443
      ],
      "type": "VEC2"
    },
    {
      "bufferView": 1,
      "byteOffset": 22624,
      "componentType": 5126,
      "count": 2828,
      "max": [
        0.8142879605293274,
        0.9965879321098328
      ],
      "min": [
        0.005784343928098679,
        0.008080816827714443
      ],
      "type": "VEC2"
    },
    {
      "bufferView": 0,
      "componentType": 5125,
      "count": 16218,
      "type": "SCALAR"
    }
  ],
  "asset": {
    "extras": {
      "author": "David Wigforss (https://sketchfab.com/dwigfor)",
      "license": "CC-BY-NC-4.0 (http://creativecommons.org/licenses/by-nc/4.0/)",
      "source": "https://sketchfab.com/3d-models/oogie-boogie-man-nightmare-before-xmas-mask-4e5fcbca5236454c94d87c224d02cff2",
      "title": "Oogie Boogie Man (Nightmare Before Xmas) Mask"
    },
    "generator": "Sketchfab-15.36.0",
    "version": "2.0"
  },
  "bufferViews": [
    {
      "buffer": 0,
      "byteLength": 64872,
      "name": "floatBufferViews",
      "target": 34963
    },
    {
      "buffer": 0,
      "byteLength": 45248,
      "byteOffset": 64872,
      "byteStride": 8,
      "name": "floatBufferViews",
      "target": 34962
    },
    {
      "buffer": 0,
      "byteLength": 67872,
      "byteOffset": 110120,
      "byteStride": 12,
      "name": "floatBufferViews",
      "target": 34962
    },
    {
      "buffer": 0,
      "byteLength": 45248,
      "byteOffset": 177992,
      "byteStride": 16,
      "name": "floatBufferViews",
      "target": 34962
    }
  ],
  "buffers": [
    {
      "byteLength": 223240,
      "uri": "scene.bin"
    }
  ],
  "images": [
    {
      "uri": "textures/MAT_Clothing_Mask_Disney_NightmareBeforeXmas_OogieBoogieMan_baseColor.png"
    },
    {
      "uri": "textures/MAT_Clothing_Mask_Disney_NightmareBeforeXmas_OogieBoogieMan_normal.png"
    }
  ],
  "materials": [
    {
      "alphaMode": "BLEND",
      "doubleSided": true,
      "name": "MAT_Clothing_Mask_Disney_NightmareBeforeXmas_OogieBoogieMan",
      "normalTexture": {
        "index": 1
      },
      "pbrMetallicRoughness": {
        "baseColorTexture": {
          "index": 0
        },
        "metallicFactor": 0.0,
        "roughnessFactor": 0.9577051494623774
      }
    }
  ],
  "meshes": [
    {
      "name": "geo1_MAT_Clothing_Mask_Disney_NightmareBeforeXmas_OogieBoogieMan_0",
      "primitives": [
        {
          "attributes": {
            "NORMAL": 1,
            "POSITION": 0,
            "TANGENT": 2,
            "TEXCOORD_0": 3,
            "TEXCOORD_1": 4
          },
          "indices": 5,
          "material": 0,
          "mode": 4
        }
      ]
    }
  ],
  "nodes": [
    {
      "children": [
        1
      ],
      "matrix": [
        1.0,
        0.0,
        0.0,
        0.0,
        0.0,
        2.220446049250313e-16,
        -1.0,
        0.0,
        0.0,
        1.0,
        2.220446049250313e-16,
        0.0,
        0.0,
        0.0,
        0.0,
        1.0
      ],
      "name": "Sketchfab_model"
    },
    {
      "children": [
        2
      ],
      "matrix": [
        0.009999999776482582,
        0.0,
        0.0,
        0.0,
        0.0,
        0.0,
        0.009999999776482582,
        0.0,
        0.0,
        -0.009999999776482582,
        0.0,
        0.0,
        0.0,
        0.0,
        0.0,
        1.0
      ],
      "name": "mesh.fbx"
    },
    {
      "children": [
        3
      ],
      "name": "RootNode"
    },
    {
      "children": [
        4
      ],
      "name": "geo1"
    },
    {
      "mesh": 0,
      "name": "geo1_MAT_Clothing_Mask_Disney_NightmareBeforeXmas_OogieBoogieMan_0"
    }
  ],
  "samplers": [
    {
      "magFilter": 9729,
      "minFilter": 9987,
      "wrapS": 10497,
      "wrapT": 10497
    }
  ],
  "scene": 0,
  "scenes": [
    {
      "name": "Sketchfab_Scene",
      "nodes": [
        0
      ]
    }
  ],
  "textures": [
    {
      "sampler": 0,
      "source": 0
    },
    {
      "sampler": 0,
      "source": 1
    }
  ]
}
